HIERARCHY
ROOT Hips
{
	OFFSET 0.000000 0.000000 0.000000
	CHANNELS 6 Xposition Yposition Zposition Zrotation Xrotation Yrotation
	JOINT Spine
	{
		OFFSET 0.000000 0.059888 0.006665
		CHANNELS 6 Xposition Yposition Zposition Zrotation Xrotation Yrotation
		JOINT Chest
		{
			OFFSET 0.000000 0.125681 -0.015911
			CHANNELS 6 Xposition Yposition Zposition Zrotation Xrotation Yrotation
			JOINT UpperChest
			{
				OFFSET 0.000000 0.122768 -0.001652
				CHANNELS 6 Xposition Yposition Zposition Zrotation Xrotation Yrotation
				JOINT Neck
				{
					OFFSET 0.000000 0.155865 0.008735
					CHANNELS 6 Xposition Yposition Zposition Zrotation Xrotation Yrotation
					JOINT Head
					{
						OFFSET 0.000000 0.095969 -0.000410
						CHANNELS 6 Xposition Yposition Zposition Zrotation Xrotation Yrotation
						JOINT LeftEye
						{
							OFFSET 0.015267 0.059218 0.021494
							CHANNELS 6 Xposition Yposition Zposition Zrotation Xrotation Yrotation
							End Site
							{
								OFFSET 0.015267 0.059218 0.021494
							}
						}
						JOINT RightEye
						{
							OFFSET -0.015267 0.059218 0.021494
							CHANNELS 6 Xposition Yposition Zposition Zrotation Xrotation Yrotation
							End Site
							{
								OFFSET -0.015267 0.059218 0.021494
							}
						}
					}
				}
				JOINT LeftShoulder
				{
					OFFSET 0.025383 0.124268 0.007699
					CHANNELS 6 Xposition Yposition Zposition Zrotation Xrotation Yrotation
					JOINT LeftUpperArm
					{
						OFFSET 0.136062 0.000000 0.000000
						CHANNELS 6 Xposition Yposition Zposition Zrotation Xrotation Yrotation
						JOINT LeftLowerArm
						{
							OFFSET 0.225446 0.000000 0.000000
							CHANNELS 6 Xposition Yposition Zposition Zrotation Xrotation Yrotation
							JOINT LeftHand
							{
								OFFSET 0.256325 0.000003 0.000015
								CHANNELS 6 Xposition Yposition Zposition Zrotation Xrotation Yrotation
								JOINT LeftIndexProximal
								{
									OFFSET 0.074229 0.008101 0.022282
									CHANNELS 6 Xposition Yposition Zposition Zrotation Xrotation Yrotation
									JOINT LeftIndexIntermediate
									{
										OFFSET 0.037712 0.000000 -0.000001
										CHANNELS 6 Xposition Yposition Zposition Zrotation Xrotation Yrotation
										JOINT LeftIndexDistal
										{
											OFFSET 0.023218 0.000022 0.000021
											CHANNELS 6 Xposition Yposition Zposition Zrotation Xrotation Yrotation
											End Site
											{
												OFFSET 0.023218 0.000022 0.000021
											}
										}
									}
								}
								JOINT LeftLittleProximal
								{
									OFFSET 0.069261 0.008101 -0.033073
									CHANNELS 6 Xposition Yposition Zposition Zrotation Xrotation Yrotation
									JOINT LeftLittleIntermediate
									{
										OFFSET 0.035643 0.000000 0.000000
										CHANNELS 6 Xposition Yposition Zposition Zrotation Xrotation Yrotation
										JOINT LeftLittleDistal
										{
											OFFSET 0.020542 0.000000 0.000000
											CHANNELS 6 Xposition Yposition Zposition Zrotation Xrotation Yrotation
											End Site
											{
												OFFSET 0.020542 0.000000 0.000000
											}
										}
									}
								}
								JOINT LeftMiddleProximal
								{
									OFFSET 0.075240 0.008101 0.002320
									CHANNELS 6 Xposition Yposition Zposition Zrotation Xrotation Yrotation
									JOINT LeftMiddleIntermediate
									{
										OFFSET 0.042007 0.000000 0.000000
										CHANNELS 6 Xposition Yposition Zposition Zrotation Xrotation Yrotation
										JOINT LeftMiddleDistal
										{
											OFFSET 0.025915 0.000000 0.000000
											CHANNELS 6 Xposition Yposition Zposition Zrotation Xrotation Yrotation
											End Site
											{
												OFFSET 0.025915 0.000000 0.000000
											}
										}
									}
								}
								JOINT LeftRingProximal
								{
									OFFSET 0.074383 0.008101 -0.015403
									CHANNELS 6 Xposition Yposition Zposition Zrotation Xrotation Yrotation
									JOINT LeftRingIntermediate
									{
										OFFSET 0.038967 0.000000 0.000000
										CHANNELS 6 Xposition Yposition Zposition Zrotation Xrotation Yrotation
										JOINT LeftRingDistal
										{
											OFFSET 0.022488 0.000000 0.000000
											CHANNELS 6 Xposition Yposition Zposition Zrotation Xrotation Yrotation
											End Site
											{
												OFFSET 0.022488 0.000000 0.000000
											}
										}
									}
								}
								JOINT LeftThumbProximal
								{
									OFFSET 0.003995 -0.010985 0.018096
									CHANNELS 6 Xposition Yposition Zposition Zrotation Xrotation Yrotation
									JOINT LeftThumbIntermediate
									{
										OFFSET 0.052819 -0.000008 -0.000074
										CHANNELS 6 Xposition Yposition Zposition Zrotation Xrotation Yrotation
										JOINT LeftThumbDistal
										{
											OFFSET 0.032489 0.000042 -0.000035
											CHANNELS 6 Xposition Yposition Zposition Zrotation Xrotation Yrotation
											End Site
											{
												OFFSET 0.032489 0.000042 -0.000035
											}
										}
									}
								}
							}
						}
					}
				}
				JOINT RightShoulder
				{
					OFFSET -0.025383 0.124268 0.007699
					CHANNELS 6 Xposition Yposition Zposition Zrotation Xrotation Yrotation
					JOINT RightUpperArm
					{
						OFFSET -0.136062 0.000000 0.000000
						CHANNELS 6 Xposition Yposition Zposition Zrotation Xrotation Yrotation
						JOINT RightLowerArm
						{
							OFFSET -0.225446 0.000000 0.000000
							CHANNELS 6 Xposition Yposition Zposition Zrotation Xrotation Yrotation
							JOINT RightHand
							{
								OFFSET -0.256325 0.000003 0.000015
								CHANNELS 6 Xposition Yposition Zposition Zrotation Xrotation Yrotation
								JOINT RightIndexProximal
								{
									OFFSET -0.074229 0.008101 0.022282
									CHANNELS 6 Xposition Yposition Zposition Zrotation Xrotation Yrotation
									JOINT RightIndexIntermediate
									{
										OFFSET -0.037712 0.000000 -0.000001
										CHANNELS 6 Xposition Yposition Zposition Zrotation Xrotation Yrotation
										JOINT RightIndexDistal
										{
											OFFSET -0.023218 0.000022 0.000021
											CHANNELS 6 Xposition Yposition Zposition Zrotation Xrotation Yrotation
											End Site
											{
												OFFSET -0.023218 0.000022 0.000021
											}
										}
									}
								}
								JOINT RightLittleProximal
								{
									OFFSET -0.069261 0.008101 -0.033073
									CHANNELS 6 Xposition Yposition Zposition Zrotation Xrotation Yrotation
									JOINT RightLittleIntermediate
									{
										OFFSET -0.035643 0.000000 0.000000
										CHANNELS 6 Xposition Yposition Zposition Zrotation Xrotation Yrotation
										JOINT RightLittleDistal
										{
											OFFSET -0.020542 0.000000 0.000000
											CHANNELS 6 Xposition Yposition Zposition Zrotation Xrotation Yrotation
											End Site
											{
												OFFSET -0.020542 0.000000 0.000000
											}
										}
									}
								}
								JOINT RightMiddleProximal
								{
									OFFSET -0.075240 0.008101 0.002320
									CHANNELS 6 Xposition Yposition Zposition Zrotation Xrotation Yrotation
									JOINT RightMiddleIntermediate
									{
										OFFSET -0.042007 0.000000 0.000000
										CHANNELS 6 Xposition Yposition Zposition Zrotation Xrotation Yrotation
										JOINT RightMiddleDistal
										{
											OFFSET -0.025915 0.000000 0.000000
											CHANNELS 6 Xposition Yposition Zposition Zrotation Xrotation Yrotation
											End Site
											{
												OFFSET -0.025915 0.000000 0.000000
											}
										}
									}
								}
								JOINT RightRingProximal
								{
									OFFSET -0.074383 0.008101 -0.015403
									CHANNELS 6 Xposition Yposition Zposition Zrotation Xrotation Yrotation
									JOINT RightRingIntermediate
									{
										OFFSET -0.038967 0.000000 0.000000
										CHANNELS 6 Xposition Yposition Zposition Zrotation Xrotation Yrotation
										JOINT RightRingDistal
										{
											OFFSET -0.022488 0.000000 0.000000
											CHANNELS 6 Xposition Yposition Zposition Zrotation Xrotation Yrotation
											End Site
											{
												OFFSET -0.022488 0.000000 0.000000
											}
										}
									}
								}
								JOINT RightThumbProximal
								{
									OFFSET -0.003995 -0.010985 0.018096
									CHANNELS 6 Xposition Yposition Zposition Zrotation Xrotation Yrotation
									JOINT RightThumbIntermediate
									{
										OFFSET -0.052819 -0.000008 -0.000074
										CHANNELS 6 Xposition Yposition Zposition Zrotation Xrotation Yrotation
										JOINT RightThumbDistal
										{
											OFFSET -0.032489 0.000042 -0.000035
											CHANNELS 6 Xposition Yposition Zposition Zrotation Xrotation Yrotation
											End Site
											{
												OFFSET -0.032489 0.000042 -0.000035
											}
										}
									}
								}
							}
						}
					}
				}
			}
		}
	}
	JOINT LeftUpperLeg
	{
		OFFSET 0.087143 -0.045243 0.001548
		CHANNELS 6 Xposition Yposition Zposition Zrotation Xrotation Yrotation
		JOINT LeftLowerLeg
		{
			OFFSET 0.000000 -0.394432 -0.000001
			CHANNELS 6 Xposition Yposition Zposition Zrotation Xrotation Yrotation
			JOINT LeftFoot
			{
				OFFSET 0.000000 -0.466446 0.003058
				CHANNELS 6 Xposition Yposition Zposition Zrotation Xrotation Yrotation
				JOINT LeftToes
				{
					OFFSET 0.000000 -0.079218 0.140851
					CHANNELS 6 Xposition Yposition Zposition Zrotation Xrotation Yrotation
					End Site
					{
						OFFSET 0.000000 -0.079218 0.140851
					}
				}
			}
		}
	}
	JOINT RightUpperLeg
	{
		OFFSET -0.087143 -0.045243 0.001548
		CHANNELS 6 Xposition Yposition Zposition Zrotation Xrotation Yrotation
		JOINT RightLowerLeg
		{
			OFFSET 0.000000 -0.394432 -0.000001
			CHANNELS 6 Xposition Yposition Zposition Zrotation Xrotation Yrotation
			JOINT RightFoot
			{
				OFFSET 0.000000 -0.466446 0.003058
				CHANNELS 6 Xposition Yposition Zposition Zrotation Xrotation Yrotation
				JOINT RightToes
				{
					OFFSET 0.000000 -0.079218 0.140851
					CHANNELS 6 Xposition Yposition Zposition Zrotation Xrotation Yrotation
					End Site
					{
						OFFSET 0.000000 -0.079218 0.140851
					}
				}
			}
		}
	}
}
MOTION
Frames: 4
Frame Time: 0.041667
0.003297 1.025376 0.035395 -2.248417 25.115075 18.630675 -0.000000 0.059888 0.006665 -6.044565 17.415359 8.090139 0.000000 0.125681 -0.015911 -3.635557 9.704165 0.908792 0.000000 0.122768 -0.001652 0.000003 -12.397667 -0.000107 0.000000 0.155865 0.008735 3.956711 0.549156 -1.065134 0.000000 0.095969 -0.000410 3.718334 -8.322593 -2.731191 0.015267 0.059218 0.021494 -1.701132 3.586990 21.747932 -0.015267 0.059218 0.021494 1.701132 3.586998 -21.747922 0.025383 0.124268 0.007699 14.184443 -4.448923 -0.597398 0.136062 -0.000000 0.000000 -78.352604 28.913676 -16.107019 0.225446 -0.000000 -0.000000 -9.940312 -8.396632 -37.359315 0.256325 0.000003 0.000015 -0.817171 41.366539 -0.120142 0.074229 0.008101 0.022282 -0.012966 0.667619 1.112106 0.037712 -0.000000 -0.000001 -1.679195 1.282858 0.674522 0.023218 0.000022 0.000021 -0.334984 1.286458 -0.710999 0.069261 0.008101 -0.033073 0.000005 -0.000043 0.000002 0.035643 0.000000 -0.000000 0.000003 -0.000001 -0.000000 0.020542 0.000000 0.000000 0.890204 -0.008561 -1.101174 0.075240 0.008101 0.002320 -0.000000 -0.000011 -0.000006 0.042007 0.000000 -0.000000 0.000004 0.000036 -0.000013 0.025915 -0.000000 -0.000000 0.000004 0.000038 -0.000014 0.074383 0.008101 -0.015403 0.000000 0.000012 0.000004 0.038967 0.000000 0.000000 0.000004 0.000000 0.000000 0.022488 0.000000 0.000000 -0.712571 -0.008159 1.310728 0.003995 -0.010985 0.018096 86.199501 49.487521 -89.646574 0.052819 -0.000008 -0.000074 -2.573042 -0.739915 0.463020 0.032489 0.000042 -0.000035 4.590284 -0.705064 -0.717113 -0.025383 0.124268 0.007699 20.765636 -4.593700 -1.856855 -0.136062 -0.000000 -0.000000 36.752046 31.871855 26.721862 -0.225446 0.000000 0.000000 6.807683 -10.968141 23.734986 -0.256325 0.000003 0.000015 -24.484123 37.866381 19.712317 -0.074229 0.008101 0.022282 0.012967 0.667620 -1.112105 -0.037712 -0.000000 -0.000001 1.679193 1.282861 -0.674523 -0.023218 0.000022 0.000021 0.334982 1.286454 0.710998 -0.069261 0.008101 -0.033073 -0.000006 -0.000043 -0.000001 -0.035643 -0.000000 0.000000 -0.000002 0.000000 0.000000 -0.020542 -0.000000 0.000000 -0.890204 -0.008562 1.101171 -0.075240 0.008101 0.002320 -0.000002 -0.000007 0.000006 -0.042007 -0.000000 -0.000000 -0.000002 0.000039 0.000013 -0.025915 -0.000000 0.000000 -0.000003 0.000039 0.000013 -0.074383 0.008101 -0.015403 -0.000002 0.000015 -0.000005 -0.038967 0.000000 -0.000000 -0.000003 0.000000 0.000000 -0.022488 0.000000 -0.000000 0.712571 -0.008158 -1.310728 -0.003995 -0.010985 0.018096 -86.199433 49.487514 89.646588 -0.052819 -0.000008 -0.000074 2.573042 -0.739910 -0.463021 -0.032489 0.000042 -0.000035 -4.590280 -0.705067 0.717108 0.087143 -0.045243 0.001548 -7.716206 -35.258154 -4.472304 -0.000000 -0.394432 -0.000001 0.733575 41.270032 -1.112099 0.000000 -0.466446 0.003058 2.532867 -7.852964 18.774757 0.000000 -0.079218 0.140851 -0.000001 0.248287 -0.000002 -0.087143 -0.045243 0.001548 -12.603465 -38.205315 -7.873252 0.000000 -0.394432 -0.000001 10.558153 42.757134 -15.352175 -0.000000 -0.466446 0.003058 2.200575 -10.475216 12.359869 -0.000000 -0.079218 0.140851 0.000000 0.248285 0.000001 
0.001595 1.021083 0.059081 -0.540276 19.790372 16.252770 -0.000000 0.059888 0.006665 -4.971284 13.595661 7.770391 -0.000000 0.125681 -0.015911 -3.035946 5.046583 0.017888 0.000000 0.122768 -0.001652 -0.000002 -12.397670 -0.000105 0.000000 0.155865 0.008735 2.941704 6.908806 -0.404785 -0.000000 0.095969 -0.000410 4.080678 -3.229853 -2.751983 0.015267 0.059218 0.021494 -1.701129 3.586995 21.747930 -0.015267 0.059218 0.021494 1.701132 3.587002 -21.747923 0.025383 0.124268 0.007699 14.885270 -3.398598 6.120168 0.136062 0.000000 -0.000000 -87.533136 22.139396 -1.013573 0.225446 -0.000000 -0.000000 -8.801153 0.573950 -35.142266 0.256325 0.000003 0.000015 -0.515525 37.216321 2.715279 0.074229 0.008101 0.022282 -0.012967 0.667619 1.112107 0.037712 0.000000 -0.000001 -1.679195 1.282865 0.674521 0.023218 0.000022 0.000021 -0.334984 1.286450 -0.710999 0.069261 0.008101 -0.033073 0.000006 -0.000046 0.000001 0.035643 -0.000000 -0.000000 0.000003 0.000001 -0.000001 0.020542 -0.000000 -0.000000 0.890205 -0.008562 -1.101172 0.075240 0.008101 0.002320 -0.000000 -0.000009 -0.000006 0.042007 -0.000000 -0.000000 0.000003 0.000037 -0.000013 0.025915 -0.000000 -0.000000 0.000003 0.000041 -0.000014 0.074383 0.008101 -0.015403 0.000000 0.000012 0.000004 0.038967 -0.000000 -0.000000 0.000002 -0.000004 -0.000000 0.022488 -0.000000 -0.000000 -0.712572 -0.008158 1.310729 0.003995 -0.010985 0.018096 86.199494 49.487521 -89.646574 0.052819 -0.000008 -0.000074 -2.573038 -0.739912 0.463021 0.032489 0.000042 -0.000035 4.590285 -0.705066 -0.717114 -0.025383 0.124268 0.007699 18.635112 -3.446075 -8.495142 -0.136062 0.000000 0.000000 47.106800 32.613033 18.765330 -0.225446 0.000000 0.000000 6.977236 0.345210 23.353148 -0.256325 0.000003 0.000015 -16.333918 38.503480 12.793831 -0.074229 0.008101 0.022282 0.012971 0.667620 -1.112105 -0.037712 -0.000000 -0.000001 1.679195 1.282861 -0.674522 -0.023218 0.000022 0.000021 0.334981 1.286454 0.710999 -0.069261 0.008101 -0.033073 -0.000002 -0.000042 0.000001 -0.035643 0.000000 0.000000 -0.000001 0.000000 -0.000001 -0.020542 0.000000 0.000000 -0.890202 -0.008561 1.101171 -0.075240 0.008101 0.002320 0.000002 -0.000007 0.000008 -0.042007 -0.000000 0.000000 0.000001 0.000039 0.000013 -0.025915 0.000000 0.000000 -0.000002 0.000040 0.000012 -0.074383 0.008101 -0.015403 0.000004 0.000015 -0.000002 -0.038967 -0.000000 0.000000 -0.000004 0.000000 -0.000001 -0.022488 0.000000 -0.000000 0.712572 -0.008158 -1.310729 -0.003995 -0.010985 0.018096 -86.199439 49.487521 89.646588 -0.052819 -0.000008 -0.000074 2.573039 -0.739911 -0.463021 -0.032489 0.000042 -0.000035 -4.590281 -0.705066 0.717110 0.087143 -0.045243 0.001548 -5.167204 -27.171150 -2.364690 -0.000000 -0.394432 -0.000001 -1.254356 41.239583 1.902378 -0.000000 -0.466446 0.003058 2.929961 -10.930609 15.611340 0.000000 -0.079218 0.140851 0.000001 0.248283 -0.000000 -0.087143 -0.045243 0.001548 -10.278519 -30.036454 -5.186585 0.000000 -0.394432 -0.000001 10.172375 41.500810 -15.151465 -0.000000 -0.466446 0.003058 3.342343 -13.400633 14.527766 -0.000000 -0.079218 0.140851 0.000000 0.248283 0.000001 
0.000039 1.017270 0.087289 0.561801 15.455962 13.801716 -0.000000 0.059888 0.006665 -3.983751 10.592845 8.068114 -0.000000 0.125681 -0.015911 -2.234376 1.913667 -0.444050 0.000000 0.122768 -0.001652 -0.000001 -12.397678 -0.000108 0.000000 0.155865 0.008735 1.621100 11.646305 0.056532 0.000000 0.095969 -0.000410 3.786884 0.794129 -2.145251 0.015267 0.059218 0.021494 -1.701132 3.586993 21.747930 -0.015267 0.059218 0.021494 1.701133 3.587000 -21.747923 0.025383 0.124268 0.007699 15.679094 -2.683838 11.571860 0.136062 0.000000 -0.000000 -90.011744 13.862087 9.497027 0.225446 -0.000000 0.000000 -8.589426 8.340664 -33.698282 0.256325 0.000003 0.000015 1.042997 35.299326 4.278358 0.074229 0.008101 0.022282 -0.012966 0.667622 1.112105 0.037712 -0.000000 -0.000001 -1.679193 1.282859 0.674522 0.023218 0.000022 0.000021 -0.334983 1.286452 -0.710999 0.069261 0.008101 -0.033073 0.000004 -0.000042 0.000000 0.035643 -0.000000 -0.000000 0.000003 0.000001 -0.000000 0.020542 -0.000000 0.000000 0.890204 -0.008561 -1.101172 0.075240 0.008101 0.002320 -0.000001 -0.000008 -0.000007 0.042007 -0.000000 -0.000000 0.000004 0.000038 -0.000014 0.025915 -0.000000 -0.000000 0.000003 0.000039 -0.000013 0.074383 0.008101 -0.015403 -0.000001 0.000015 0.000004 0.038967 -0.000000 -0.000000 0.000002 -0.000000 -0.000000 0.022488 0.000000 0.000000 -0.712572 -0.008157 1.310729 0.003995 -0.010985 0.018096 86.199494 49.487524 -89.646574 0.052819 -0.000008 -0.000074 -2.573030 -0.739912 0.463019 0.032489 0.000042 -0.000035 4.590280 -0.705064 -0.717110 -0.025383 0.124268 0.007699 14.994774 -2.665300 -13.262121 -0.136062 -0.000000 -0.000000 55.621055 30.400052 11.329388 -0.225446 -0.000000 0.000000 7.655277 11.094666 22.890747 -0.256325 0.000003 0.000015 -9.614227 37.708491 6.311012 -0.074229 0.008101 0.022282 0.012969 0.667619 -1.112105 -0.037712 0.000000 -0.000001 1.679193 1.282861 -0.674523 -0.023218 0.000022 0.000021 0.334982 1.286453 0.710999 -0.069261 0.008101 -0.033073 -0.000004 -0.000043 -0.000000 -0.035643 -0.000000 -0.000000 -0.000000 -0.000000 -0.000001 -0.020542 -0.000000 0.000000 -0.890203 -0.008562 1.101171 -0.075240 0.008101 0.002320 0.000001 -0.000008 0.000007 -0.042007 -0.000000 0.000000 -0.000002 0.000039 0.000013 -0.025915 -0.000000 -0.000000 -0.000002 0.000039 0.000013 -0.074383 0.008101 -0.015403 0.000002 0.000014 -0.000003 -0.038967 -0.000000 0.000000 -0.000002 -0.000000 0.000000 -0.022488 0.000000 0.000000 0.712572 -0.008158 -1.310730 -0.003995 -0.010985 0.018096 -86.199433 49.487521 89.646581 -0.052819 -0.000008 -0.000074 2.573042 -0.739910 -0.463021 -0.032489 0.000042 -0.000035 -4.590283 -0.705065 0.717109 0.087143 -0.045243 0.001548 -3.180893 -20.044980 -1.091283 -0.000000 -0.394432 -0.000001 -3.692108 40.211175 5.707649 0.000000 -0.466446 0.003058 2.974664 -13.829881 12.590073 0.000000 -0.079218 0.140851 0.000001 0.248280 -0.000000 -0.087143 -0.045243 0.001548 -8.448999 -22.746526 -3.287086 -0.000000 -0.394432 -0.000001 8.989101 39.679444 -13.915074 -0.000000 -0.466446 0.003058 4.544804 -15.810549 16.630058 -0.000000 -0.079218 0.140851 0.000001 0.248282 -0.000001 
-0.001195 1.014159 0.111730 1.238182 12.304029 11.793289 0.000000 0.059888 0.006665 -3.352955 8.898502 8.884063 -0.000000 0.125681 -0.015911 -1.630082 0.601869 -0.558479 -0.000000 0.122768 -0.001652 0.000002 -12.397674 -0.000110 0.000000 0.155865 0.008735 0.741061 14.609558 0.260033 0.000000 0.095969 -0.000410 3.101275 3.278416 -1.519609 0.015267 0.059218 0.021494 -1.701132 3.586997 21.747934 -0.015267 0.059218 0.021494 1.701132 3.587005 -21.747922 0.025383 0.124268 0.007699 16.347423 -2.543060 15.367774 0.136062 0.000000 -0.000000 -89.321799 8.997732 15.425376 0.225446 0.000000 -0.000000 -9.077505 12.530540 -32.758339 0.256325 0.000003 0.000015 2.754189 35.121823 4.436723 0.074229 0.008101 0.022282 -0.012966 0.667619 1.112105 0.037712 0.000000 -0.000001 -1.679196 1.282859 0.674522 0.023218 0.000022 0.000021 -0.334982 1.286456 -0.710999 0.069261 0.008101 -0.033073 0.000007 -0.000042 0.000001 0.035643 -0.000000 -0.000000 0.000003 -0.000000 0.000001 0.020542 -0.000000 -0.000000 0.890204 -0.008564 -1.101172 0.075240 0.008101 0.002320 0.000002 -0.000008 -0.000006 0.042007 -0.000000 0.000000 0.000003 0.000038 -0.000013 0.025915 -0.000000 0.000000 0.000002 0.000037 -0.000013 0.074383 0.008101 -0.015403 0.000002 0.000014 0.000004 0.038967 0.000000 0.000000 0.000004 0.000001 0.000000 0.022488 0.000000 -0.000000 -0.712573 -0.008156 1.310729 0.003995 -0.010985 0.018096 86.199487 49.487524 -89.646568 0.052819 -0.000008 -0.000074 -2.573038 -0.739915 0.463022 0.032489 0.000042 -0.000035 4.590285 -0.705067 -0.717109 -0.025383 0.124268 0.007699 11.971538 -2.511779 -16.273443 -0.136062 0.000000 -0.000000 60.511945 27.671229 6.323346 -0.225446 -0.000000 0.000000 8.411529 18.475279 22.788566 -0.256325 0.000003 0.000015 -5.874784 35.988161 2.084075 -0.074229 0.008101 0.022282 0.012969 0.667620 -1.112106 -0.037712 0.000000 -0.000001 1.679194 1.282861 -0.674522 -0.023218 0.000022 0.000021 0.334982 1.286453 0.711000 -0.069261 0.008101 -0.033073 -0.000005 -0.000043 -0.000001 -0.035643 -0.000000 0.000000 -0.000002 -0.000000 0.000001 -0.020542 -0.000000 -0.000000 -0.890203 -0.008562 1.101172 -0.075240 0.008101 0.002320 -0.000000 -0.000008 0.000005 -0.042007 -0.000000 0.000000 -0.000003 0.000039 0.000014 -0.025915 -0.000000 -0.000000 -0.000002 0.000039 0.000013 -0.074383 0.008101 -0.015403 0.000000 0.000014 -0.000004 -0.038967 0.000000 -0.000000 -0.000002 0.000000 0.000000 -0.022488 0.000000 -0.000000 0.712571 -0.008158 -1.310729 -0.003995 -0.010985 0.018096 -86.199433 49.487514 89.646581 -0.052819 -0.000008 -0.000074 2.573048 -0.739909 -0.463021 -0.032489 0.000042 -0.000035 -4.590281 -0.705066 0.717110 0.087143 -0.045243 0.001548 -1.922795 -14.694831 -0.487944 -0.000000 -0.394432 -0.000001 -5.868807 39.104469 9.248452 0.000000 -0.466446 0.003058 2.887128 -16.419312 10.341727 0.000000 -0.079218 0.140851 -0.000001 0.248280 0.000002 -0.087143 -0.045243 0.001548 -7.381373 -17.910457 -2.281398 -0.000000 -0.394432 -0.000001 7.643666 38.973848 -12.034115 0.000000 -0.466446 0.003058 5.476755 -17.912111 17.652614 0.000000 -0.079218 0.140851 0.000000 0.248283 -0.000000 
